<svg width="32" height="32" xmlns="http://www.w3.org/2000/svg"><path d="M26.66 8.917a5.733 5.733 0 0 0 2.516-3.165 11.455 11.455 0 0 1-3.633 1.388 5.733 5.733 0 0 0-9.755 5.22A16.245 16.245 0 0 1 3.996 6.381a5.733 5.733 0 0 0 1.77 7.64 5.701 5.701 0 0 1-2.59-.717v.072c0 2.724 1.92 5.07 4.59 5.61a5.734 5.734 0 0 1-2.583.1 5.733 5.733 0 0 0 5.345 3.973 11.48 11.48 0 0 1-7.107 2.449c-.456 0-.913-.026-1.366-.079A16.196 16.196 0 0 0 10.827 28a16.17 16.17 0 0 0 16.28-16.281c0-.248-.006-.495-.018-.74a11.625 11.625 0 0 0 2.856-2.963 11.437 11.437 0 0 1-3.285.901Z"/></svg>