<svg width="137" height="40" fill="none" xmlns="http://www.w3.org/2000/svg"><g clip-path="url(#a)"><path d="M19.367.303v20.973c0 1.847-.598 3.377-1.782 4.548-1.157 1.143-2.586 1.75-4.315 1.75H9.214l6.588 3.404c4.546-.938 8.044-4.644 8.044-9.84V.29h-4.491l.012.013Zm13.053 0h-4.614V4.92h4.614V.303Zm-.014 8.571H28.01v21.428h4.396V8.874Zm15.461 6.973v1.874h-11.8v-1.874h11.8Zm5.826-7.29h5.117v1.874h-5.117v15.627c0 1.433 1.089 2.646 2.518 2.646h2.6v1.874h-2.86c-2.354 0-4.423-1.943-4.423-4.34V10.444h-1.864V8.571h1.864v-4.41h2.15v4.41l.015-.014Zm8.356 14.497v-7.29c0-2.204.68-4.175 2.41-5.566C66.2 8.791 68.281 8.24 70.486 8.24s4.287.551 6.03 1.957c1.728 1.391 2.408 3.362 2.408 5.567v7.29c0 2.19-.694 4.16-2.409 5.566-1.728 1.42-3.838 1.957-6.029 1.957-4.6 0-8.438-2.521-8.438-7.51v-.014Zm14.727-.041v-7.248c0-3.886-2.75-5.595-6.33-5.595-3.579 0-6.246 1.736-6.246 5.595v7.248c0 3.872 2.695 5.636 6.288 5.636 3.593 0 6.288-1.764 6.288-5.636Zm19.585 5.222c-1.85 1.034-4.519 2.33-6.628 2.33-2.014 0-3.893-.566-5.363-1.999-1.402-1.364-2.069-3.031-2.069-5.002V8.544h2.069v14.882c0 3.252 2.668 5.25 5.743 5.25 2.042 0 4.329-1.06 6.084-2.053V8.543h2.15v21.635h-1.932l-.04-1.943h-.014Zm5.839-4.712v-8.268c0-2.44 1.075-4.369 3.117-5.636 1.469-.91 3.429-1.447 5.158-1.447 1.851 0 3.702.248 5.526.606l.081.014-.095 1.832-.122-.027c-1.674-.345-3.389-.552-5.104-.552-3.13 0-6.41 1.737-6.41 5.292v8.061c0 3.61 3.239 5.292 6.41 5.292 1.715 0 3.416-.207 5.104-.551l.122-.028.095 1.874-.081.014c-1.851.358-3.729.564-5.608.564-1.701 0-3.647-.55-5.09-1.46-2.014-1.268-3.09-3.17-3.09-5.581h-.013Zm20.021-14.566c1.932-.469 3.919-.744 5.906-.744 4.233 0 7.976 2.329 7.976 7v14.979h-2.069V15.31c0-3.597-3.348-5.21-6.465-5.21-1.756 0-3.634.097-5.363.455v19.65h-2.15V0h2.15v8.971l.015-.014Z" fill="#0077A0"/><path d="M13.243 32.631 0 25.796l5.09 14.139 2.341-5.664 5.812-1.64Z" fill="#EF7F1A"/></g><defs><clipPath id="a"><path fill="#fff" d="M0 0h136.327v40H0z"/></clipPath></defs></svg>