<svg width="32" height="32" xmlns="http://www.w3.org/2000/svg"><path d="M16.003 28.055c-3.28 0-3.667-.018-4.947-.074a8.78 8.78 0 0 1-2.913-.6 6.159 6.159 0 0 1-3.507-3.508 8.788 8.788 0 0 1-.559-2.916c-.074-1.277-.074-1.696-.074-4.95 0-3.29.017-3.674.074-4.947.02-.995.21-1.98.559-2.912a6.147 6.147 0 0 1 3.51-3.51 8.71 8.71 0 0 1 2.913-.56c1.273-.071 1.692-.071 4.944-.071 3.306 0 3.686.017 4.946.072a8.766 8.766 0 0 1 2.92.56 6.153 6.153 0 0 1 3.511 3.509 8.76 8.76 0 0 1 .561 2.956c.075 1.277.075 1.695.075 4.948s-.019 3.68-.075 4.943a8.799 8.799 0 0 1-.56 2.918 6.165 6.165 0 0 1-3.512 3.51 8.816 8.816 0 0 1-2.914.558c-1.274.074-1.691.074-4.952.074Zm-.046-21.938c-3.261 0-3.6.016-4.873.074-.76.01-1.513.15-2.225.414a3.985 3.985 0 0 0-2.292 2.283 6.687 6.687 0 0 0-.415 2.25c-.07 1.291-.07 1.63-.07 4.869 0 3.2.011 3.588.07 4.872a6.74 6.74 0 0 0 .415 2.226 3.988 3.988 0 0 0 2.292 2.282 6.563 6.563 0 0 0 2.225.414c1.29.075 1.63.075 4.873.075 3.271 0 3.61-.016 4.872-.075a6.62 6.62 0 0 0 2.227-.414 4 4 0 0 0 2.28-2.279 6.722 6.722 0 0 0 .415-2.25h.014c.058-1.275.058-1.615.058-4.873 0-3.257-.015-3.6-.072-4.873a6.743 6.743 0 0 0-.415-2.224 4 4 0 0 0-2.28-2.283 6.59 6.59 0 0 0-2.227-.414c-1.289-.074-1.626-.074-4.872-.074Zm.046 16.048A6.164 6.164 0 1 1 22.163 16a6.172 6.172 0 0 1-6.16 6.165Zm0-10.168a4 4 0 1 0 4 4 4.01 4.01 0 0 0-4-4Zm6.4-.95a1.437 1.437 0 1 1 .01-2.875 1.437 1.437 0 0 1-.01 2.875Z"/></svg>