<?xml version="1.0" encoding="utf-8"?><svg viewBox="0 0 313 312" xmlns="http://www.w3.org/2000/svg" xmlns:xlink="http://www.w3.org/1999/xlink"><style>:root>svg{display:none}:root>svg:target{display:block}</style><svg fill="none" viewBox="0 0 313 312" id="icon-bg" xmlns="http://www.w3.org/2000/svg"><g filter="url(#afilter0_d_26_51)"><ellipse cx="156.5" cy="236" rx="56.5" ry="56" transform="rotate(-180 156.5 236)" fill="#fff"/></g><defs><filter id="afilter0_d_26_51" x="0" y="0" width="313" height="312" filterUnits="userSpaceOnUse" color-interpolation-filters="sRGB"><feFlood flood-opacity="0" result="BackgroundImageFix"/><feColorMatrix in="SourceAlpha" values="0 0 0 0 0 0 0 0 0 0 0 0 0 0 0 0 0 0 127 0" result="hardAlpha"/><feOffset dy="-80"/><feGaussianBlur stdDeviation="50"/><feColorMatrix values="0 0 0 0 0.937255 0 0 0 0 0.498039 0 0 0 0 0.101961 0 0 0 0.2 0"/><feBlend in2="BackgroundImageFix" result="effect1_dropShadow_26_51"/><feBlend in="SourceGraphic" in2="effect1_dropShadow_26_51" result="shape"/></filter></defs></svg><svg viewBox="0 0 32 32" id="icon-facebook" xmlns="http://www.w3.org/2000/svg"><path d="M2.67 16.003a13.34 13.34 0 0011.249 13.172v-9.319h-3.383v-3.853h3.387v-2.934a4.704 4.704 0 015.03-5.2c1.001.016 2 .106 2.987.267v3.279h-1.685a1.929 1.929 0 00-2.171 2.084v2.504h3.695l-.591 3.854h-3.104v9.318c7.006-1.108 11.919-7.506 11.18-14.56C28.523 7.56 22.39 2.32 15.307 2.69 8.224 3.06 2.67 8.91 2.669 16.003z"/></svg><svg viewBox="0 0 32 32" id="icon-instagram" xmlns="http://www.w3.org/2000/svg"><path d="M16.003 28.055c-3.28 0-3.667-.018-4.947-.074a8.78 8.78 0 01-2.913-.6 6.159 6.159 0 01-3.507-3.508 8.788 8.788 0 01-.559-2.916c-.074-1.277-.074-1.696-.074-4.95 0-3.29.017-3.674.074-4.947.02-.995.21-1.98.559-2.912a6.147 6.147 0 013.51-3.51 8.71 8.71 0 012.913-.56c1.273-.071 1.692-.071 4.944-.071 3.306 0 3.686.017 4.946.072a8.766 8.766 0 012.92.56 6.153 6.153 0 013.511 3.509 8.76 8.76 0 01.561 2.956c.075 1.277.075 1.695.075 4.948s-.019 3.68-.075 4.943a8.799 8.799 0 01-.56 2.918 6.165 6.165 0 01-3.512 3.51 8.816 8.816 0 01-2.914.558c-1.274.074-1.691.074-4.952.074zm-.046-21.938c-3.261 0-3.6.016-4.873.074-.76.01-1.513.15-2.225.414a3.985 3.985 0 00-2.292 2.283 6.687 6.687 0 00-.415 2.25c-.07 1.291-.07 1.63-.07 4.869 0 3.2.011 3.588.07 4.872.012.76.152 1.513.415 2.226a3.988 3.988 0 002.292 2.282 6.563 6.563 0 002.225.414c1.29.075 1.63.075 4.873.075 3.271 0 3.61-.016 4.872-.075a6.62 6.62 0 002.227-.414 4 4 0 002.28-2.279 6.722 6.722 0 00.415-2.25h.014c.058-1.275.058-1.615.058-4.873 0-3.257-.015-3.6-.072-4.873a6.743 6.743 0 00-.415-2.224 4 4 0 00-2.28-2.283 6.59 6.59 0 00-2.227-.414c-1.289-.074-1.626-.074-4.872-.074zm.046 16.048A6.164 6.164 0 1122.163 16a6.172 6.172 0 01-6.16 6.165zm0-10.168a4 4 0 104 4 4.01 4.01 0 00-4-4zm6.4-.95a1.437 1.437 0 11.01-2.875 1.437 1.437 0 01-.01 2.875z"/></svg><svg fill="none" viewBox="0 0 137 40" id="icon-logo" xmlns="http://www.w3.org/2000/svg"><g clip-path="url(#dclip0_17_5)"><path d="M19.367.303v20.973c0 1.847-.598 3.377-1.782 4.548-1.157 1.143-2.586 1.75-4.315 1.75H9.214l6.588 3.404c4.546-.938 8.044-4.644 8.044-9.84V.29h-4.491l.012.013zm13.053 0h-4.614V4.92h4.614V.303zm-.014 8.571H28.01v21.428h4.396V8.874zm15.461 6.973v1.874h-11.8v-1.874h11.8zm5.826-7.29h5.117v1.874h-5.117v15.627c0 1.433 1.089 2.646 2.518 2.646h2.6v1.874h-2.86c-2.354 0-4.423-1.943-4.423-4.34V10.444h-1.864V8.571h1.864v-4.41h2.15v4.41l.015-.014zm8.356 14.497v-7.29c0-2.204.68-4.175 2.41-5.566C66.2 8.791 68.281 8.24 70.486 8.24c2.205 0 4.287.551 6.03 1.957 1.728 1.391 2.408 3.362 2.408 5.567v7.29c0 2.19-.694 4.16-2.409 5.566-1.728 1.42-3.838 1.957-6.029 1.957-4.6 0-8.438-2.521-8.438-7.51v-.014zm14.727-.041v-7.248c0-3.886-2.75-5.595-6.33-5.595-3.579 0-6.246 1.736-6.246 5.595v7.248c0 3.872 2.695 5.636 6.288 5.636 3.593 0 6.288-1.764 6.288-5.636zm19.585 5.222c-1.85 1.034-4.519 2.33-6.628 2.33-2.014 0-3.893-.566-5.363-1.999-1.402-1.364-2.069-3.031-2.069-5.002V8.544h2.069v14.882c0 3.252 2.668 5.25 5.743 5.25 2.042 0 4.329-1.06 6.084-2.053V8.543h2.15v21.635h-1.932l-.04-1.943h-.014zm5.839-4.712v-8.268c0-2.44 1.075-4.369 3.117-5.636 1.469-.91 3.429-1.447 5.158-1.447 1.851 0 3.702.248 5.526.606l.081.014-.095 1.832-.122-.027c-1.674-.345-3.389-.552-5.104-.552-3.13 0-6.41 1.737-6.41 5.292v8.061c0 3.61 3.239 5.292 6.41 5.292 1.715 0 3.416-.207 5.104-.551l.122-.028.095 1.874-.081.014c-1.851.358-3.729.564-5.608.564-1.701 0-3.647-.55-5.09-1.46-2.014-1.268-3.09-3.17-3.09-5.581h-.013zm20.021-14.566c1.932-.469 3.919-.744 5.906-.744 4.233 0 7.976 2.329 7.976 7v14.979h-2.069V15.31c0-3.597-3.348-5.21-6.465-5.21-1.756 0-3.634.097-5.363.455v19.65h-2.15V0h2.15v8.971l.015-.014z" fill="#0077A0"/><path d="M13.243 32.631L0 25.796l5.09 14.139 2.341-5.664 5.812-1.64z" fill="#EF7F1A"/></g><defs><clipPath id="dclip0_17_5"><path fill="#fff" d="M0 0h136.327v40H0z"/></clipPath></defs></svg><svg viewBox="0 0 32 32" id="icon-twitter" xmlns="http://www.w3.org/2000/svg"><path d="M26.66 8.917a5.733 5.733 0 002.516-3.165 11.455 11.455 0 01-3.633 1.388 5.733 5.733 0 00-9.755 5.22A16.245 16.245 0 013.996 6.381a5.733 5.733 0 001.77 7.64 5.701 5.701 0 01-2.59-.717v.072c0 2.724 1.92 5.07 4.59 5.61a5.734 5.734 0 01-2.583.1 5.733 5.733 0 005.345 3.973 11.48 11.48 0 01-7.107 2.449c-.456 0-.913-.026-1.366-.079A16.196 16.196 0 0010.827 28a16.17 16.17 0 0016.28-16.281c0-.248-.006-.495-.018-.74a11.625 11.625 0 002.856-2.963 11.437 11.437 0 01-3.285.901z"/></svg><svg viewBox="0 0 32 32" id="icon-user" xmlns="http://www.w3.org/2000/svg"><path d="M16 8c1.467 0 2.667 1.2 2.667 2.667 0 1.466-1.2 2.666-2.667 2.666a2.674 2.674 0 01-2.667-2.666C13.333 9.2 14.533 8 16 8zm0 12c3.6 0 7.733 1.72 8 2.667V24H8v-1.32c.267-.96 4.4-2.68 8-2.68zm0-14.667a5.332 5.332 0 00-5.333 5.334A5.332 5.332 0 0016 16a5.332 5.332 0 005.333-5.333A5.332 5.332 0 0016 5.333zm0 12c-3.56 0-10.667 1.787-10.667 5.334v4h21.334v-4c0-3.547-7.107-5.334-10.667-5.334z"/></svg></svg>